<svg width="119" height="16" viewBox="0 0 119 16" fill="none" xmlns="http://www.w3.org/2000/svg">
<g clip-path="url(#clip0_61_59982)">
<path d="M0 0.317124V3.41596H3.80512V15.8818H6.92003V3.41596H10.7149V0.317124H0Z" fill="url(#paint0_linear_61_59982)"/>
<path d="M12.0663 0.277341V15.9014H21.3775V12.7959H15.1678V9.64751H19.8234V6.52858H15.1678V3.39627H21.3775V0.277341H12.0663Z" fill="url(#paint1_linear_61_59982)"/>
<path d="M22.1432 0.317124V3.41596H25.9483V15.8818H29.0628V3.41596H32.8581V0.317124H22.1432Z" fill="url(#paint2_linear_61_59982)"/>
<path d="M34.4354 2.52571C32.9108 4.0816 32.1447 5.94465 32.1447 8.1104C32.1447 10.2873 32.9108 12.1437 34.4354 13.6857C35.9605 15.2054 37.8084 15.9707 39.9768 15.9774C42.1399 15.9774 43.9895 15.2126 45.5231 13.6857C47.0611 12.149 47.8299 10.2904 47.8299 8.1104C47.8299 5.93796 47.0611 4.07624 45.5231 2.52571C43.9824 0.972499 42.1332 0.1979 39.9768 0.1979C37.8222 0.1979 35.973 0.972499 34.4354 2.52571ZM36.6467 11.4409C35.7243 10.5146 35.2663 9.39663 35.2663 8.0912C35.2663 6.79916 35.7243 5.68482 36.6467 4.74548C37.5566 3.81864 38.666 3.35656 39.9768 3.35656C41.2702 3.35656 42.3756 3.81864 43.2975 4.74548C44.2275 5.67767 44.6891 6.79247 44.6891 8.0912C44.6891 9.40333 44.2275 10.5208 43.2975 11.4409C42.3698 12.358 41.263 12.8187 39.9768 12.8187C38.6727 12.8187 37.5633 12.358 36.6467 11.4409Z" fill="url(#paint3_linear_61_59982)"/>
<path d="M54.5146 4.90933C54.5146 7.03311 56.1763 8.59212 58.0577 9.23814C59.1243 9.6145 61.0119 9.81228 61.0119 11.2329C61.0119 12.0999 60.0699 12.8156 59.2127 12.8156L59.2256 12.8321C58.3555 12.8321 57.4197 12.1231 57.4197 11.253L54.3414 11.9155C54.6941 14.2335 56.8505 16.0001 59.2359 16.0001C61.8334 16.0001 64.1723 13.8808 64.1723 11.253C64.1723 9.08367 62.4517 7.58671 60.5052 7.01971C59.4319 6.69648 57.6751 6.32414 57.6751 4.91915C57.6751 4.05571 58.385 3.33692 59.2453 3.33692C60.0926 3.33692 60.8025 4.05571 60.8025 4.90933L63.8844 4.25349C63.5669 1.9489 61.5981 0.178266 59.2256 0.178266C56.6246 0.178266 54.5146 2.2882 54.5146 4.90933Z" fill="url(#paint4_linear_61_59982)"/>
<path d="M67.239 2.52571C65.7131 4.0816 64.9487 5.94465 64.9487 8.1104C64.9487 10.2873 65.7131 12.1437 67.239 13.6857C68.7628 15.2054 70.612 15.9707 72.7804 15.9774C74.9439 15.9774 76.7918 15.2126 78.3267 13.6857C79.8634 12.149 80.6322 10.2904 80.6322 8.1104C80.6322 5.93796 79.8634 4.07624 78.3267 2.52571C76.7847 0.972499 74.9372 0.1979 72.7804 0.1979C70.6245 0.1979 68.7771 0.972499 67.239 2.52571ZM69.4499 11.4409C68.5279 10.5146 68.0681 9.39663 68.0681 8.0912C68.0681 6.79916 68.5279 5.68482 69.4499 4.74548C70.3589 3.81864 71.4683 3.35656 72.7804 3.35656C74.0724 3.35656 75.1792 3.81864 76.1016 4.74548C77.0311 5.67767 77.4914 6.79247 77.4914 8.0912C77.4914 9.40333 77.0311 10.5208 76.1016 11.4409C75.1721 12.358 74.0666 12.8187 72.7804 12.8187C71.475 12.8187 70.3656 12.358 69.4499 11.4409Z" fill="url(#paint5_linear_61_59982)"/>
<path d="M81.9546 0.313557V15.8818H91.2663V12.7763H85.0561V0.313557H81.9546Z" fill="url(#paint6_linear_61_59982)"/>
<path d="M92.0346 15.8818H95.391L96.4349 13.525H101.726L102.77 15.8818H106.136L99.0828 0.00014782L92.0346 15.8818ZM99.0895 7.46708L100.498 10.7615H97.6622L99.0895 7.46708Z" fill="url(#paint7_linear_61_59982)"/>
<path d="M107.471 0.317124L107.481 15.8818H110.583V8.99842L115.035 15.8818H118.827L115.235 10.2409C116.112 9.89445 116.544 9.5681 117.083 8.80377C117.735 7.87648 118.062 6.88759 118.062 5.83932V5.43438C118.062 3.71241 117.505 2.84897 116.566 1.89892C115.634 0.969846 114.243 0.317124 112.516 0.317124H107.471ZM110.573 3.41596H112.322C113.075 3.41596 113.844 3.64053 114.247 4.03609C114.659 4.46468 114.862 4.96561 114.862 5.52948C114.862 6.7166 113.95 7.72201 112.813 7.72201H111.774V7.71218H110.573V3.41596Z" fill="url(#paint8_linear_61_59982)"/>
</g>
<defs>
<linearGradient id="paint0_linear_61_59982" x1="5.35738" y1="-6.70446" x2="5.35738" y2="17.9288" gradientUnits="userSpaceOnUse">
<stop stop-color="#008AD1"/>
<stop offset="1" stop-color="#1A2A5A"/>
</linearGradient>
<linearGradient id="paint1_linear_61_59982" x1="16.7219" y1="-6.70355" x2="16.7219" y2="17.9297" gradientUnits="userSpaceOnUse">
<stop stop-color="#008AD1"/>
<stop offset="1" stop-color="#1A2A5A"/>
</linearGradient>
<linearGradient id="paint2_linear_61_59982" x1="27.5008" y1="-6.70446" x2="27.5008" y2="17.9288" gradientUnits="userSpaceOnUse">
<stop stop-color="#008AD1"/>
<stop offset="1" stop-color="#1A2A5A"/>
</linearGradient>
<linearGradient id="paint3_linear_61_59982" x1="39.9874" y1="-6.70403" x2="39.9874" y2="17.9293" gradientUnits="userSpaceOnUse">
<stop stop-color="#008AD1"/>
<stop offset="1" stop-color="#1A2A5A"/>
</linearGradient>
<linearGradient id="paint4_linear_61_59982" x1="59.2568" y1="15.8819" x2="59.2568" y2="-2.29153" gradientUnits="userSpaceOnUse">
<stop stop-color="#EE7D00"/>
<stop offset="1" stop-color="#FFCF00"/>
</linearGradient>
<linearGradient id="paint5_linear_61_59982" x1="72.7904" y1="15.8811" x2="72.7904" y2="-2.29209" gradientUnits="userSpaceOnUse">
<stop stop-color="#EE7D00"/>
<stop offset="1" stop-color="#FFCF00"/>
</linearGradient>
<linearGradient id="paint6_linear_61_59982" x1="86.6103" y1="15.882" x2="86.6103" y2="-2.29087" gradientUnits="userSpaceOnUse">
<stop stop-color="#EE7D00"/>
<stop offset="1" stop-color="#FFCF00"/>
</linearGradient>
<linearGradient id="paint7_linear_61_59982" x1="99.0853" y1="15.882" x2="99.0853" y2="-2.29159" gradientUnits="userSpaceOnUse">
<stop stop-color="#EE7D00"/>
<stop offset="1" stop-color="#FFCF00"/>
</linearGradient>
<linearGradient id="paint8_linear_61_59982" x1="113.149" y1="15.882" x2="113.149" y2="-2.29027" gradientUnits="userSpaceOnUse">
<stop stop-color="#EE7D00"/>
<stop offset="1" stop-color="#FFCF00"/>
</linearGradient>
<clipPath id="clip0_61_59982">
<rect width="118.827" height="16" fill="white"/>
</clipPath>
</defs>
</svg>
